<svg id="Layer_1" data-name="Layer 1" xmlns="http://www.w3.org/2000/svg" viewBox="0 0 604.75 578.91"><defs><style>.cls-1{fill:#4b2516;}.cls-2{fill:#d26730;}.cls-3{fill:#e09b73;}.cls-4{fill:#d9d4c8;}</style></defs><title>DingoLogo</title><path class="cls-1" d="M509.09,28.43l33,30.54-20.47,140.1L489.45,231.8,499.9,350.07,466,387.19l-28.73,31.45h0l-50,54.71L353.8,540.25l-33.26,11.88H268.87l-33.26-11.88-33.47-66.89-50-54.71-28.75-31.46L89.51,350.07,100,231.8,67.83,199.07,47.35,59l33-30.54L212.7,109.57l42.42-18h79.17l42.42,18L509.09,28.43m2.06-20.78-10.76,6.59L375.33,90.9,340.81,76.21l-3.12-1.33h-86l-3.12,1.33L214.08,90.9,89,14.24,78.26,7.65,69,16.22,36,46.75l-6.42,6,1.26,8.66L51.36,201.48l.78,5.38L56,210.73,82.7,238,72.92,348.6l-.64,7.29,4.94,5.41,33.93,37.12,28.75,31.46,48.39,53,32.43,64.83,3,6,6.29,2.25,33.27,11.89,2.71,1h57.45l2.71-1,33.27-11.89,6.29-2.25,3-6,32.43-64.82,48.41-53,4.36-4.77h0l24.37-26.68,33.93-37.12,4.94-5.41-.64-7.29L506.71,238l26.75-27.25,3.8-3.87.79-5.38L558.53,61.37l1.26-8.66-6.42-6-33-30.53-9.25-8.57Z"/><polygon class="cls-2" points="521.58 199.08 489.45 231.81 499.9 350.07 465.98 387.2 475.93 326.9 452.12 294.37 415.17 324.5 366.36 348.77 337.65 307.12 359.33 251 406.66 239.07 411.07 201.58 353.94 164.12 294.7 183.43 235.47 164.12 178.34 201.58 182.75 239.07 230.09 251 251.75 307.12 223.05 348.77 174.24 324.5 137.28 294.37 113.48 326.9 123.43 387.2 89.51 350.07 99.96 231.81 67.83 199.08 47.35 58.97 80.32 28.44 212.7 109.58 255.12 91.54 334.29 91.54 376.71 109.58 509.09 28.44 542.05 58.97 521.58 199.08"/><polygon class="cls-1" points="117.28 195.74 78.15 146.85 91.24 75.26 203.29 140.31 117.28 195.74"/><polygon class="cls-1" points="472.15 195.74 386.13 140.31 498.17 75.26 511.27 146.85 472.15 195.74"/><polygon class="cls-3" points="475.93 326.89 465.98 387.19 387.27 473.36 353.8 540.25 320.54 552.13 268.87 552.13 235.61 540.25 202.15 473.36 123.44 387.19 113.48 326.89 137.29 294.36 174.24 324.5 223.05 348.77 251.75 307.12 230.1 251 182.75 239.06 178.34 201.57 235.47 164.11 294.7 183.42 353.94 164.11 411.07 201.57 406.66 239.06 359.33 251 337.66 307.12 366.36 348.77 415.17 324.5 452.13 294.36 475.93 326.89"/><polygon class="cls-4" points="437.35 343.91 401.19 374.44 365.7 426.71 327.44 441.36 332.54 394.18 313.38 309.05 328.02 227.81 294.7 211.16 261.4 227.81 276.04 309.05 256.89 394.18 261.98 441.36 223.73 426.71 188.23 374.44 152.07 343.91 143.16 381.04 152.18 418.65 202.15 473.36 235.61 540.25 268.88 552.13 294.71 552.13 320.55 552.13 353.81 540.25 387.27 473.36 437.24 418.65 446.26 381.04 437.35 343.91"/><polygon class="cls-1" points="320.08 469.9 294.71 469.9 269.34 469.9 262.52 480.03 275.83 510.44 294.71 514.85 313.59 510.44 326.91 480.03 320.08 469.9"/><polygon class="cls-1" points="162.94 284.16 181.74 273.62 218.77 276.95 225.29 314.51 186.73 302.4 162.94 284.16"/><polygon class="cls-1" points="426.49 284.16 407.68 273.62 370.65 276.95 364.14 314.51 402.69 302.4 426.49 284.16"/></svg>