<svg id="Layer_1" data-name="Layer 1" xmlns="http://www.w3.org/2000/svg" viewBox="0 0 604.79 605.04"><defs><style>.cls-1{fill:#d26730;}</style></defs><title>Dragon</title><path class="cls-1" d="M51.5,472c44.68-78,107-136.36,188.93-174l7.39,29.89c-1.08.55-2.12,1.13-3.2,1.64a365.54,365.54,0,0,0-100.16,70,375.23,375.23,0,0,0-51.2,62.13c-14.75,22.4-11.14,51.85,8.44,69.48,1,.88,2,1.68,3.29,2.73C139.39,461,191.66,406,264.42,370.45c17.07,37.18,41.27,68.65,71.63,95.39,30.18,26.58,63.75,47.57,102.56,60.95-1.47,1.1-2.52,2-3.67,2.71a54.42,54.42,0,0,1-30.75,8.28A68.13,68.13,0,0,1,372,528.84a238.75,238.75,0,0,1-22.6-14.49,421.54,421.54,0,0,1-56.6-48.27c-2.94-3-5.67-6.3-8.38-9.56-12.95-15.56-29.65-22-49.61-20.16a59.55,59.55,0,0,0-38.45,18.48c-8.31,8.63-16.56,17.38-24.1,26.67a70.06,70.06,0,0,0,31,110.43A289.38,289.38,0,0,0,257,605.27a334.51,334.51,0,0,0,65.18,3.47,311.67,311.67,0,0,0,45-5.26,6.78,6.78,0,0,0,2.85-1.17c-2.29-.37-4.58-.75-6.87-1.11C342,597.86,323.06,589,305.44,577.05s-33.62-26.18-49.13-40.83c-5.63-5.32-11.17-10.73-17.14-16.48a147.82,147.82,0,0,0-11.43,14c-3.54,4.74-6.92,9.6-10.5,14.6a23.2,23.2,0,0,1-15-17.29,22.36,22.36,0,0,1,4.42-19.51,237.7,237.7,0,0,1,28.18-30.3c4.08-3.69,8.16-3.25,11.9,1.19a412.07,412.07,0,0,0,32.89,34.88,362.53,362.53,0,0,0,57.51,44.21c13.87,8.6,28.53,15.43,44.56,18.93,22.41,4.89,44.08,2.27,64.95-6.95A153.33,153.33,0,0,0,465,564a291.16,291.16,0,0,0,48-36.86A112.5,112.5,0,0,0,536,497.27a61.75,61.75,0,0,0,6.48-19.16c1.9-12.32-1.23-23.27-8.76-33.07a70.36,70.36,0,0,0-17.51-15.67c-9.36-6.16-19.56-10.57-29.94-14.66-10.92-4.31-21.84-8.63-32.51-13.51-24.81-11.33-44.61-28.8-60.64-50.71-5.87-8-11.66-16.09-16-25.1a41.49,41.49,0,0,1-4.37-14.14c-.75-8.09,2.53-13.58,10.05-16.54a29.19,29.19,0,0,1,12.88-2.12c.67,1.48,1.32,2.89,1.94,4.32,13.59,31.21,34.23,56.33,63.74,73.77,12.27,7.24,25.24,12.91,39.17,16,27.22,6.05,54.81-12.89,59.06-40.32a12.55,12.55,0,0,0,0-1.85c-35.39,5.66-66.66-3-93.49-26.49-16.66-14.57-26.59-33.27-31.55-54.79,11.58-1.27,56.12,5,89.29,15.12a453.07,453.07,0,0,1,83.79,35.35,28.58,28.58,0,0,0-.12-9.92c-4.74-30.8-21.4-52.24-50.85-62.88-25-9-50.83-14.86-77.08-18.9a464.84,464.84,0,0,0-76.72-5.43,444.61,444.61,0,0,0-89,9.92c-.56.12-1.11.31-2.43.68,5.41,4.55,10.46,8.56,15.46,12.64s10.16,8.24,15.23,12.37l15.53,12.64c-1.29.61-2.26,1-3.16,1.52-4.19,2.39-8.67,4.42-12.49,7.31-8.78,6.65-13.24,15.85-14.15,26.77s1.16,21.49,4.93,31.69c9.39,25.47,23.32,48,42.82,67.1,21.15,20.67,44.63,37.91,71.78,49.91a191.72,191.72,0,0,0,26.35,9.22,43.33,43.33,0,0,1,9.1,3.53c6.61,3.61,9,9.53,7.34,16.88a37.87,37.87,0,0,1-4.82,10.9c-1.12,1.88-2.35,2.2-4.47,1.74a243.2,243.2,0,0,1-55.73-19.48,260,260,0,0,1-137.65-172.7,236.22,236.22,0,0,1-6.29-70.65c.45-7.13,1.11-14.24,1.72-21.36.13-1.43.45-2.84.71-4.47,51.83-14.53,104.57-18.74,158-15.28s104.9,14.67,154.55,36.24a28.36,28.36,0,0,0-.54-3.05c-32-106.49-112.21-180.78-213.2-206.86a299.27,299.27,0,0,0-88.16-9.5C215,7.68,146.88,37,90.45,92.94a283.54,283.54,0,0,0-39.33,48.88c-.58.91-1.14,1.85-1.68,2.79a7.41,7.41,0,0,0-.33,1.35c1.65-1.09,2.9-1.89,4.14-2.72A633.57,633.57,0,0,1,170.78,80.93c24.65-9.81,49.7-18.43,75.49-24.7a250.72,250.72,0,0,1,80-6.2A244.07,244.07,0,0,1,388,63a8.81,8.81,0,0,1,3.52,2c-4,.26-8,.58-12.05.77-67.51,3-132.49,17.74-195.32,42.32a571.39,571.39,0,0,0-117.38,62.5c-30.38,21-50.53,49.3-59.68,85.24a144.19,144.19,0,0,0-3.83,25.82c0,.47,0,.94.1,2.16,1.39-1.35,2.4-2.28,3.35-3.27a552.35,552.35,0,0,1,74.86-64.88C138.42,174.7,201,146,268.71,128.37A575.53,575.53,0,0,1,342.42,114a500.89,500.89,0,0,1,91.36-3.25c13.17.76,26.3,2.09,39.45,3.16a7.32,7.32,0,0,1,4.6,1.83,247.88,247.88,0,0,1,29.5,31.53c.5.65.95,1.33,1.9,2.66-5.08-.83-9.42-1.53-13.76-2.26-16.6-2.77-33.25-5.18-50.05-6.29-13.17-.88-26.36-1.68-39.54-1.81A404.55,404.55,0,0,0,359.47,142c-47.45,5-93.39,16.41-138,33A511.66,511.66,0,0,0,42.32,287.76c-16.57,16-27.09,35.19-30.87,57.94a99.3,99.3,0,0,0,1.87,41.42,18.26,18.26,0,0,0,.94,2.26C71.5,310.82,144.4,253,235.41,218.22v32.44c-1.51.69-2.8,1.32-4.12,1.87-53.39,22.55-100.84,54-141.95,94.9a430.37,430.37,0,0,0-33.48,37.3,74.79,74.79,0,0,0-6.65,83.58C49.85,469.45,50.57,470.54,51.5,472Z" transform="translate(-3.24 -4.01)"/></svg>